<?xml version="1.0" encoding="iso-8859-1"?>
<!-- Uploaded to: SVG Repo, www.svgrepo.com, Generator: SVG Repo Mixer Tools -->
<svg fill="#000000" height="800px" width="800px" version="1.1" id="Layer_1" xmlns="http://www.w3.org/2000/svg" xmlns:xlink="http://www.w3.org/1999/xlink" 
	 viewBox="0 0 512 512" xml:space="preserve">
<g>
	<g>
		<path d="M230.4,147.2c-10.587,0-19.2,8.613-19.2,19.2c0,10.587,8.613,19.2,19.2,19.2c10.587,0,19.2-8.613,19.2-19.2
			C249.6,155.813,240.987,147.2,230.4,147.2z"/>
	</g>
</g>
<g>
	<g>
		<path d="M0,51.2v305.647l128-128l102.4,102.4l153.6-153.6l128,128V51.2H0z M230.4,224c-31.761,0-57.6-25.838-57.6-57.6
			c0-31.762,25.839-57.6,57.6-57.6c31.762,0,57.6,25.839,57.6,57.6C288,198.161,262.162,224,230.4,224z"/>
	</g>
</g>
<g>
	<g>
		<polygon points="511.224,359.176 384,231.953 230.4,385.553 128,283.153 0,411.153 0,460.8 512,460.8 512,358.4 		"/>
	</g>
</g>
</svg>